<svg version="1.1" xmlns="http://www.w3.org/2000/svg" xmlns:xlink="http://www.w3.org/1999/xlink" width="38.98636" height="36.39817" viewBox="0,0,38.98636,36.39817"><g transform="translate(-220.46275,-161.80091)"><g data-paper-data="{&quot;isPaintingLayer&quot;:true}" fill-rule="evenodd" stroke-miterlimit="10" stroke-dasharray="" stroke-dashoffset="0" style="mix-blend-mode: normal"><g><path d="M231.90111,174.37483c-0.14586,0.31277 -0.4751,0.97797 -1.81179,0.08807c-1.33669,-0.88991 -1.67937,-3.54395 -1.68779,-3.85252c-0.07121,-1.19465 -0.11123,-2.66037 0.38452,-4.2951c1.41436,-4.74781 6.46615,-4.92435 7.31721,-3.44218c0.85002,1.44359 -2.25634,2.18461 -4.08841,4.35762c-0.82329,0.94888 -1.10132,2.07587 -1.2689,3.00684c-0.19562,1.31774 1.33854,3.78485 1.15516,4.13725z" fill="#de1515" stroke="#001026" stroke-width="0.5" stroke-linecap="round" stroke-linejoin="round"/><path d="M234.76421,164.72386c-1.02457,0.64558 -2.45763,1.8813 -2.45763,1.8813c0,0 0.30817,-1.43662 -0.36965,-2.2287c-0.51933,-0.64202 -1.36369,-0.46457 -1.63158,-0.38005c0.48773,-0.51512 1.16517,-1.15122 2.50463,-1.57379c1.33946,-0.42257 2.96998,-0.08109 3.22247,0.68402c0.17534,0.76721 -0.39795,0.97586 -1.26824,1.61722z" fill="#ff6666" stroke="none" stroke-width="1" stroke-linecap="butt" stroke-linejoin="miter"/><path d="M227.94236,176.41292c-0.48182,-0.68165 -2.24423,-3.02673 -3.29171,-6.04752l-0.04278,-0.15323c-0.04278,-0.15323 -0.23775,-0.2251 -0.38993,-0.14375c-0.90781,0.68099 -2.72657,1.92724 -3.44021,-0.17627c-0.71153,-2.02638 4.62276,-5.99341 6.09412,-4.41239c0.56001,0.71812 0.30791,1.38119 0.16309,1.73255c-0.07188,0.19496 -0.06661,0.38782 -0.02277,0.57961c0.16692,0.45864 0.49866,1.29879 0.86371,1.94502c0.89385,1.63539 1.25152,2.01163 1.85116,2.76726c0.59963,0.75563 2.07521,2.49094 0.8799,3.95178c-1.00772,1.26272 -2.18381,0.60003 -2.66457,-0.04304z" fill="#de1515" stroke="#001026" stroke-width="0.5" stroke-linecap="round" stroke-linejoin="round"/><path d="M236.13262,182.32669c-0.14901,0.19707 -2.86191,2.62574 -2.14655,3.3782c0.83527,0.9036 2.45145,2.13327 1.2165,3.55659c-1.23494,1.42332 -3.46654,-1.14056 -4.07565,-2.24332c-1.26837,-2.62877 0.94835,-4.85089 1.55286,-5.3306c0.6045,-0.47971 1.62381,-1.31813 2.62667,-1.34551c1.08104,0.00908 1.38685,1.31314 0.82618,1.98464z" fill="#de1515" stroke="#001026" stroke-width="0.5" stroke-linecap="round" stroke-linejoin="round"/><path d="M227.14659,182.61064c-0.71074,0.83001 -2.16656,2.64536 -2.16656,2.64536c0,0 1.11488,5.48936 -1.66225,5.56518c-1.65856,0.04529 -2.12011,-2.72131 -1.87512,-6.47221c0.03224,-0.23247 0.10307,-0.46601 0.25209,-0.66308c0.70969,-0.86857 2.80333,-3.35754 4.26548,-4.94146c2.17499,-2.33678 3.5891,-4.26678 3.5891,-4.26678c3.11189,-3.36596 4.53455,-0.74141 6.41441,0.24946c1.60775,0.9211 1.31076,1.3538 0.9111,3.68072c-0.15705,1.31669 -0.25169,2.09127 -0.18996,2.93879c0.07332,1.27179 -1.78441,1.09092 -2.75817,0.77011c0,0 -1.44188,-0.50103 -2.18842,-0.98244c-0.90399,-0.59292 -1.49519,-1.03997 -1.85497,-1.49335z" fill="#de1515" stroke="#001026" stroke-width="0.5" stroke-linecap="round" stroke-linejoin="round"/><path d="M229.91239,179.29272c0,0 0.44706,-0.5912 1.00878,-1.22413c0.67322,-0.79038 1.23072,-1.5776 2.4475,-0.83883c0.94467,0.669 2.19684,1.29102 1.12567,3.05727c-0.99614,1.68699 -1.98042,0.98048 -1.98042,0.98048c-1.75887,-0.80118 -2.60152,-1.97477 -2.60152,-1.97477z" fill="#ff6666" stroke="none" stroke-width="1" stroke-linecap="butt" stroke-linejoin="miter"/><path d="M232.91621,173.38212c-1.05682,0.87805 -2.37101,2.22634 -3.53487,0.59832c-1.33498,-2.24095 2.47054,-4.23625 3.81,-4.65883c1.18623,-0.37979 1.98504,0.602 2.66392,1.43266c1.24099,1.62591 2.3589,2.98499 1.82246,4.54364c-0.64163,1.94752 -2.22238,0.60108 -2.943,-0.34424c-0.44008,-0.56698 -0.91873,-1.13292 -1.20032,-1.54983c-0.19601,-0.11044 -0.42849,-0.1427 -0.61819,-0.02172z" fill="#de1515" stroke="#001026" stroke-width="0.5" stroke-linecap="round" stroke-linejoin="round"/><path d="M259.24496,184.82223c0.0803,0.1136 0.04699,0.30751 -0.10623,0.3503l-4.09974,1.11554c0,0 -1.74545,2.51806 -2.99829,3.28566c-2.08772,1.2922 -3.82237,1.37816 -3.82237,1.37816c0,0 -0.73522,2.76068 -2.92114,3.28356c-2.18592,0.52289 -6.39795,-1.06051 -8.02308,-8.27293c-1.62513,-7.21242 0.18299,-13.0904 4.50534,-15.94901c4.32235,-2.85861 9.68599,1.31814 9.37109,1.09514l6.88213,-0.99851c0.15323,-0.04278 0.27421,0.14691 0.20128,0.3033l-2.9197,4.75032c0,0 0.7031,1.7178 0.82975,3.52855c0.10663,1.07788 0.05477,2.00571 -0.0753,2.89705z" fill="#de1515" stroke="#001026" stroke-width="0.5" stroke-linecap="butt" stroke-linejoin="miter"/><path d="M248.06088,190.8404c0,0 -0.62161,2.68038 -2.80754,3.20326c-2.18592,0.52289 -6.2093,-1.22006 -7.79376,-8.3564c-2.18342,-9.28158 3.24972,-13.86892 7.40883,-11.39629c4.19768,2.47159 0.80882,7.00312 1.1287,10.23678c0.26869,2.77186 2.70709,3.01408 2.06376,6.31264z" fill="#ff6666" stroke="none" stroke-width="1" stroke-linecap="butt" stroke-linejoin="miter"/><path d="M243.60202,178.80314c0.15428,-0.00421 0.27421,0.14691 0.23985,0.30224c-0.24999,0.74023 -0.81026,2.83992 -0.90135,5.1584c-0.05883,2.08601 0.09056,3.31713 0.22207,3.89254c0.04383,0.1918 -0.1448,0.35135 -0.33976,0.27947c-1.0509,-0.3187 -3.98377,-1.70542 -3.86292,-5.76172c0.28988,-3.52051 2.74896,-3.93506 4.64211,-3.87094z" fill="#ff6666" stroke="#de3d3d" stroke-width="0.5" stroke-linecap="round" stroke-linejoin="round"/><path d="M247.83037,197.94909c-1.5152,-1.77283 -1.6296,-4.5489 -1.6296,-4.5489" fill="none" stroke="#001026" stroke-width="0.5" stroke-linecap="round" stroke-linejoin="round"/><path d="M243.4967,197.56561c-0.25921,-2.42472 0.43258,-3.94901 0.43258,-3.94901" fill="none" stroke="#001026" stroke-width="0.5" stroke-linecap="round" stroke-linejoin="round"/><path d="M246.99577,184.34608c0.02212,0.81 -0.03185,1.66066 -0.3008,1.70661c-0.53895,0.05331 -1.63475,-0.49577 -1.69016,-1.11185c-0.0961,-0.69217 0.82396,-2.33849 1.4411,-2.35534c0.4618,-0.05121 0.5288,0.98917 0.54986,1.76059z" fill="#de3d3d" stroke="#de3d3d" stroke-width="0.5" stroke-linecap="round" stroke-linejoin="round"/><path d="M247.10042,166.97323c0,0 -0.98942,3.34661 -2.14827,4.72925" fill="none" stroke="#001026" stroke-width="0.5" stroke-linecap="round" stroke-linejoin="round"/><path d="M243.60531,171.85507c-0.701,-1.64066 -0.35464,-4.50651 -0.35464,-4.50651" fill="none" stroke="#001026" stroke-width="0.5" stroke-linecap="round" stroke-linejoin="round"/><path d="M251.63287,188.77427c-1.70516,1.16595 -3.67124,1.25824 -4.39502,0.1972c-0.72377,-1.06103 0.03777,-2.85743 1.74189,-4.06195c1.70516,-1.16595 3.67124,-1.25824 4.39502,-0.1972c0.76235,1.05998 -0.03672,2.896 -1.74189,4.06196z" fill="#ff6666" stroke="#de3d3d" stroke-width="0.5" stroke-linecap="round" stroke-linejoin="round"/><path d="M249.43009,188.68001c-0.42428,0.01158 -0.77985,-0.2875 -0.79038,-0.67321c-0.01053,-0.38572 0.32819,-0.70376 0.75247,-0.71535c0.42428,-0.01158 0.77984,0.2875 0.79037,0.67321c0.01053,0.38572 -0.32818,0.70376 -0.75247,0.71535" fill="#de3d3d" stroke="none" stroke-width="1" stroke-linecap="butt" stroke-linejoin="miter"/><path d="M250.29169,179.23809c-1.66555,1.20347 -3.7505,1.18319 -4.51178,0.16178c-0.76761,-1.25284 -0.27395,-2.96472 1.3916,-4.16819c1.66449,-1.24204 3.86094,-1.37921 4.74215,-0.20667c0.91978,1.17148 0.04358,3.00961 -1.62197,4.21308z" fill="#ff6666" stroke="#de3d3d" stroke-width="0.5" stroke-linecap="round" stroke-linejoin="round"/><path d="M248.04824,179.06775c-0.42428,0.01158 -0.77985,-0.2875 -0.79038,-0.67321c-0.01053,-0.38572 0.32818,-0.70376 0.75247,-0.71535c0.42428,-0.01158 0.77985,0.2875 0.79038,0.67321c-0.02803,0.38677 -0.32819,0.70376 -0.75247,0.71535" fill="#de3d3d" stroke="none" stroke-width="1" stroke-linecap="butt" stroke-linejoin="miter"/></g></g></g></svg>