<svg version="1.1" xmlns="http://www.w3.org/2000/svg" xmlns:xlink="http://www.w3.org/1999/xlink" width="37.25703" height="39.07777" viewBox="0,0,37.25703,39.07777"><g transform="translate(-221.37149,-160.50166)"><g data-paper-data="{&quot;isPaintingLayer&quot;:true}" fill-rule="evenodd" stroke-miterlimit="10" stroke-dasharray="" stroke-dashoffset="0" style="mix-blend-mode: normal"><g><path d="M234.05087,188.12716c0.31289,0.15645 0.9778,0.50846 0.03912,1.83827c-0.93868,1.3298 -3.63742,1.60359 -3.95031,1.60359c-1.21247,0.03911 -2.69873,0.03911 -4.34143,-0.50845c-4.77166,-1.56448 -4.81077,-6.68815 -3.2854,-7.5095c1.48626,-0.82135 2.15116,2.34672 4.30232,4.2632c0.93868,0.86047 2.07294,1.17336 3.01162,1.36892c1.3298,0.23467 3.87208,-1.25159 4.22409,-1.05603z" fill="#ffab19" stroke="#001026" stroke-width="0.5" stroke-linecap="round" stroke-linejoin="round"/><path d="M224.3511,184.95909c0.62579,1.05603 1.83826,2.54228 1.83826,2.54228c0,0 -1.44714,-0.35201 -2.26849,0.31289c-0.66491,0.50845 -0.50846,1.36891 -0.43023,1.6427c-0.50845,-0.50845 -1.13425,-1.21247 -1.52537,-2.58139c-0.39112,-1.36892 0,-3.01162 0.78224,-3.24629c0.78224,-0.15645 0.9778,0.43023 1.60359,1.3298z" fill="#ffffff" stroke="none" stroke-width="1" stroke-linecap="butt" stroke-linejoin="miter"/><path d="M236.00647,192.1948c-0.70401,0.46935 -3.12896,2.19027 -6.21881,3.16807l-0.15644,0.03911c-0.15645,0.03911 -0.23468,0.23467 -0.15645,0.39112c0.66491,0.93868 1.87738,2.81606 -0.27378,3.48096c-2.07294,0.66491 -5.94502,-4.84988 -4.30232,-6.29702c0.74312,-0.54756 1.40803,-0.27379 1.76004,-0.11733c0.19556,0.07823 0.39112,0.07822 0.58668,0.03911c0.46935,-0.15645 1.32981,-0.46934 1.99471,-0.82135c1.68182,-0.86047 2.07293,-1.21247 2.85517,-1.79915c0.78224,-0.58668 2.58139,-2.03383 4.02853,-0.78224c1.25159,1.05603 0.54757,2.22938 -0.11733,2.69872z" fill="#ffab19" stroke="#001026" stroke-width="0.5" stroke-linecap="round" stroke-linejoin="round"/><path d="M242.22527,184.05951c0.19556,0.15645 2.58139,2.97251 3.36363,2.2685c0.93868,-0.82135 2.22939,-2.42494 3.63742,-1.13424c1.40803,1.29069 -1.25159,3.48096 -2.38583,4.06764c-2.69872,1.21247 -4.88899,-1.09513 -5.35834,-1.72092c-0.46935,-0.62579 -1.29069,-1.68182 -1.29069,-2.69872c0.03911,-1.09513 1.36891,-1.36892 2.03382,-0.78224z" fill="#ffab19" stroke="#001026" stroke-width="0.5" stroke-linecap="round" stroke-linejoin="round"/><path d="M242.26438,193.1726c0.82135,0.74312 2.6205,2.26849 2.6205,2.26849c0,0 5.59301,-0.97779 5.59301,1.83827c0,1.68182 -2.81606,2.07294 -6.60992,1.72092c-0.23467,-0.03911 -0.46935,-0.11733 -0.66491,-0.27379c-0.86047,-0.74312 -3.32451,-2.93339 -4.88899,-4.45876c-2.3076,-2.2685 -4.22409,-3.75475 -4.22409,-3.75475c-3.32451,-3.2463 -0.6258,-4.61521 0.43023,-6.49258c0.9778,-1.60359 1.40803,-1.2907 3.75475,-0.82135c1.3298,0.19556 2.11204,0.31289 2.97251,0.27378c1.29069,-0.03911 1.05603,1.83827 0.70401,2.81607c0,0 -0.54757,1.44715 -1.05603,2.19027c-0.62579,0.89957 -1.09513,1.48625 -1.56448,1.83826z" fill="#ffab19" stroke="#001026" stroke-width="0.5" stroke-linecap="round" stroke-linejoin="round"/><path d="M238.97898,190.27832c0,0 -0.58668,-0.46935 -1.21247,-1.05603c-0.78224,-0.70401 -1.56448,-1.29069 -0.78224,-2.50316c0.70401,-0.93868 1.36891,-2.19027 3.12895,-1.05603c1.68182,1.05603 0.93869,2.03383 0.93869,2.03383c-0.86047,1.76004 -2.07294,2.58139 -2.07294,2.58139z" fill="#ffffff" stroke="none" stroke-width="1" stroke-linecap="butt" stroke-linejoin="miter"/><path d="M233.07307,187.07113c0.86047,1.09513 2.19027,2.46406 0.50846,3.59831c-2.3076,1.29069 -4.22409,-2.6205 -4.61521,-3.98942c-0.35201,-1.21247 0.6649,-1.99471 1.52537,-2.65962c1.68182,-1.21247 3.08984,-2.30761 4.65432,-1.72093c1.9556,0.70401 0.54757,2.26849 -0.43023,2.97251c-0.58668,0.43023 -1.17336,0.89957 -1.60359,1.17336c-0.11733,0.19556 -0.15645,0.43023 -0.03912,0.62579z" fill="#ffab19" stroke="#001026" stroke-width="0.5" stroke-linecap="round" stroke-linejoin="round"/><path d="M245.39334,160.70967c0.11733,-0.07823 0.3129,-0.03912 0.35201,0.11733l1.01691,4.18498c0,0 2.50317,1.83826 3.24629,3.12895c1.25159,2.15116 1.29069,3.9112 1.29069,3.9112c0,0 2.77695,0.82135 3.24629,3.05073c0.46935,2.22938 -1.25158,6.45347 -8.60463,7.90062c-7.35305,1.44715 -13.25896,-0.54757 -16.03591,-5.00633c-2.77695,-4.45876 1.60359,-9.77799 1.36892,-9.4651l-0.82135,-7.00104c-0.03911,-0.15645 0.15644,-0.27379 0.31289,-0.19556l4.73255,3.08984c0,0 1.76004,-0.6649 3.5983,-0.74312c1.09513,-0.07823 2.03382,-0.00001 2.93339,0.15644z" fill="#ffab19" stroke="#001026" stroke-width="0.5" stroke-linecap="butt" stroke-linejoin="miter"/><path d="M251.18191,172.20859c0,0 2.69872,0.70402 3.16807,2.9334c0.46935,2.22938 -1.40803,6.25791 -8.68285,7.66594c-9.46509,1.9556 -13.96297,-3.67652 -11.34247,-7.82239c2.6205,-4.18498 7.11837,-0.62579 10.40378,-0.86046c2.81606,-0.19556 3.12896,-2.65961 6.45347,-1.91649z" fill="#ffffff" stroke="none" stroke-width="1" stroke-linecap="butt" stroke-linejoin="miter"/><path d="M238.86164,176.39357c0,-0.15645 0.15644,-0.27378 0.31289,-0.23467c0.74312,0.27379 2.85517,0.89957 5.20189,1.05603c2.11204,0.11733 3.36363,0 3.95031,-0.11734c0.19556,-0.03911 0.352,0.15645 0.27378,0.35201c-0.35201,1.05603 -1.83826,3.98942 -5.94501,3.75475c-3.55919,-0.39112 -3.91119,-2.89429 -3.79386,-4.81077z" fill="#ffffff" stroke="#001026" stroke-width="0.5" stroke-linecap="round" stroke-linejoin="round"/><path d="M258.37851,172.63882c-1.83826,1.48626 -4.65432,1.52536 -4.65432,1.52536" fill="none" stroke="#001026" stroke-width="0.5" stroke-linecap="round" stroke-linejoin="round"/><path d="M257.87005,177.01936c-2.46405,0.19556 -3.98942,-0.54757 -3.98942,-0.54757" fill="none" stroke="#001026" stroke-width="0.5" stroke-linecap="round" stroke-linejoin="round"/><path d="M244.57199,173.10816c0.82135,0 1.68182,0.07822 1.72092,0.35201c0.03911,0.54756 -0.54757,1.64271 -1.17336,1.68182c-0.70401,0.07823 -2.34671,-0.89958 -2.34671,-1.52537c-0.03911,-0.46935 1.01691,-0.50845 1.79915,-0.50845z" fill="#001026" stroke="#001026" stroke-width="0.5" stroke-linecap="round" stroke-linejoin="round"/><path d="M226.9716,172.52148c0,0 3.36363,1.09514 4.73255,2.30761" fill="none" stroke="#001026" stroke-width="0.5" stroke-linecap="round" stroke-linejoin="round"/><path d="M231.82149,176.19801c-1.68182,0.66491 -4.5761,0.23467 -4.5761,0.23467" fill="none" stroke="#001026" stroke-width="0.5" stroke-linecap="round" stroke-linejoin="round"/><path d="M249.1872,168.53206c1.13424,1.76004 1.17336,3.75475 0.07823,4.45876c-1.09513,0.70401 -2.89428,-0.11733 -4.06764,-1.87738c-1.13424,-1.76004 -1.17336,-3.75475 -0.07823,-4.45876c1.09513,-0.74312 2.9334,0.11733 4.06764,1.87738z" fill="#ffffff" stroke="#001026" stroke-width="0.5" stroke-linecap="round" stroke-linejoin="round"/><path d="M249.03075,170.76145c0,0.43023 -0.31289,0.78224 -0.70401,0.78224c-0.39112,0 -0.70401,-0.35201 -0.70401,-0.78224c0,-0.43023 0.31289,-0.78224 0.70401,-0.78224c0.39112,0 0.70401,0.35201 0.70401,0.78224" fill="#001026" stroke="none" stroke-width="1" stroke-linecap="butt" stroke-linejoin="miter"/><path d="M239.48743,169.6272c1.17336,1.72092 1.09513,3.83298 0.03911,4.5761c-1.29069,0.74312 -3.01162,0.19556 -4.18498,-1.52537c-1.21247,-1.72092 -1.29069,-3.9503 -0.07823,-4.81077c1.21247,-0.89957 3.05074,0.03911 4.2241,1.76003z" fill="#ffffff" stroke="#001026" stroke-width="0.5" stroke-linecap="round" stroke-linejoin="round"/><path d="M239.25276,171.89569c0,0.43023 -0.3129,0.78224 -0.70402,0.78224c-0.39112,0 -0.70401,-0.35201 -0.70401,-0.78224c0,-0.43023 0.31289,-0.78224 0.70401,-0.78224c0.39112,0.03911 0.70402,0.35201 0.70402,0.78224" fill="#001026" stroke="none" stroke-width="1" stroke-linecap="butt" stroke-linejoin="miter"/></g></g></g></svg>